<?xml version="1.0" encoding="UTF-8"?><svg id="_レイヤー_2" xmlns="http://www.w3.org/2000/svg" viewBox="0 0 344.69 282.81"><defs><style>.cls-1{fill:#fff;}.cls-2{fill:#61a520;}.cls-3{fill:#3f3f3f;font-family:Bauhaus93, 'Bauhaus 93';font-size:45.79px;}</style></defs><g id="_レイヤー_1-2"><g><path class="cls-1" d="M266.64,82.67c-7.33,.16-13.6,1.97-18.68,4.26-.99-10.66-2.88-16.97-2.88-16.97,0,0-24.37-6.12-78.17-6.12s-73.24,6.12-73.24,6.12c0,0-7.45,23.06-2.07,54.58,7.54,44.18,39.31,63.52,39.31,63.52l-2.42,9.65s8.63,14.35,42.62,14.63c33.87,.28,41.32-14.39,41.32-14.39l-2.48-10.82s4.93-3.57,11.2-10.4c5.07-4.9,17.73-15.29,39.29-21.59,28.97-8.47,35.93-20.99,36.42-41.88,.41-17.88-9.1-31.06-30.21-30.59Zm18.62,38.58c-4.45,17.72-28.53,24.47-45.99,28.05,2.38-5.34,4.41-11.22,5.81-17.61,1.45-6.62,2.36-12.91,2.89-18.76,0,0,.02-.01,.03-.02,5.82-3.9,7.48-23.19,23.61-20.37s16.93,15.68,13.66,28.7Z"/><path class="cls-2" d="M278.68,0s-25.81,27.01-52.21,21.78c-23-4.56-25.35-9.34-37.89-3.04-12.54,6.3-18.12,34.07-18.12,34.07l4.46-.33s4.05-13.47,15.83-16.41,21.75,4.57,43.38,4.43c24.35-.16,46.94-38.44,46.94-38.44l-2.39-2.07Z"/><g><path class="cls-2" d="M27.57,175.59c-2.26,1.2-4.52,2.41-6.78,3.61-1.68-3.25-3.27-6.59-4.78-10.02-.61-1.4-1.16-2.35-1.65-2.83-.49-.49-1.03-.61-1.62-.36-.67,.28-.98,.77-.93,1.48,.05,.7,.47,2.01,1.3,3.88,1.6,3.59,3.29,7.09,5.07,10.5-2.89,1.56-5.78,3.13-8.66,4.69-2.2-4.2-4.27-8.54-6.2-13.02-2.72-6.33-3.7-11.77-3.18-15.85,.53-4.11,2.51-6.64,5.77-7.63,4.3-1.32,8.6-2.65,12.9-3.97,3.15-.97,6.04-.23,8.69,1.97,2.66,2.21,4.85,5.67,6.82,10.35,1.71,4.05,3.55,7.96,5.53,11.73-2.9,1.57-5.8,3.14-8.71,4.72-1.55-2.95-3.02-5.99-4.41-9.1-1.13-2.52-2.18-3.6-3.23-3.14-.62,.27-.92,.76-.89,1.49,.03,.73,.38,1.89,1.09,3.46,1.24,2.75,2.53,5.43,3.89,8.06Z"/><path class="cls-2" d="M64.52,204.15c-13.33,3.82-27.53,6.07-42.33,6.47,4.71-14.17,10.82-27.47,18.12-39.61,2.66,4.99,5.56,9.74,8.66,14.25-2.11,3.27-4.14,6.62-6.1,10.03,3.88-.78,7.72-1.68,11.5-2.69,3.21,4.08,6.6,7.93,10.15,11.56Z"/><path class="cls-2" d="M77.52,232.58c-1.47,2.11-2.94,4.21-4.4,6.32-2.72-1.87-5.39-3.84-8.01-5.89-1.07-.84-1.9-1.34-2.51-1.48-.61-.15-1.12,.02-1.53,.52-.46,.56-.54,1.12-.23,1.67,.31,.55,1.18,1.4,2.61,2.52,2.76,2.15,5.58,4.2,8.45,6.15-1.87,2.71-3.74,5.43-5.6,8.14-3.55-2.41-7.02-4.96-10.4-7.65-4.78-3.8-7.68-7.66-8.79-11.18-1.11-3.53-.37-6.53,2.03-8.97,3.17-3.22,6.34-6.45,9.5-9.67,2.33-2.36,5.06-3.25,8.16-2.83,3.11,.41,6.3,2.08,9.79,4.9,3.02,2.44,6.13,4.75,9.32,6.91-1.88,2.73-3.75,5.45-5.63,8.18-2.49-1.7-4.94-3.47-7.34-5.32-1.94-1.5-3.26-1.85-3.99-.96-.43,.52-.49,1.08-.19,1.65,.3,.58,1.06,1.35,2.27,2.28,2.13,1.63,4.29,3.21,6.48,4.72Z"/><path class="cls-2" d="M99.74,240.74c-3.76,7.53-7.52,15.07-11.28,22.6-4.86-2.36-9.62-4.95-14.27-7.76,6.04-9.82,12.08-19.63,18.12-29.45,4.84,2.93,9.83,5.56,14.94,7.88,4.67,2.12,7.98,4.44,9.98,7.29,2.23,3.17,2.92,6.33,1.83,9.58-1.11,3.3-4.07,5.47-9.08,6.18,.99,5.42,2.22,10.86,3.71,16.3-5.38-1.69-10.68-3.62-15.9-5.8-.94-4.42-1.72-8.82-2.33-13.21,1.29-2.67,2.58-5.33,3.86-8,.34,.16,.69,.32,1.03,.48,2.76,1.27,4.53,.99,5.27-.7,.66-1.51-.58-2.89-3.65-4.32-.75-.35-1.49-.7-2.23-1.07Z"/><path class="cls-2" d="M158.95,247.13c-4.51,4.79-9.43,9.38-14.75,13.72-1.02,6.29-2.03,12.59-3.05,18.88-5.29-.82-10.56-1.86-15.77-3.13,1.57-6.19,3.13-12.37,4.7-18.56-3.22-6.04-5.97-12.16-8.26-18.32,4.2,1.4,8.45,2.61,12.75,3.63,1.27,2.73,2.63,5.45,4.08,8.15,2.56-1.9,5.04-3.86,7.42-5.88,4.27,.68,8.57,1.17,12.88,1.49Z"/><path class="cls-2" d="M206.29,243.28c2.01,8.03,4.02,16.05,6.03,24.08,.76,3,0,5.79-2.4,8.32-2.4,2.51-5.97,4.22-10.58,4.93-5.56,.85-10.07-.34-13.22-3.32-1.62,1.89-3.46,3.28-5.5,4.14-2.03,.86-4.61,1.34-7.68,1.38-4.88,.07-8.61-1.03-11.07-3.09-2.47-2.07-3.51-4.96-3.26-8.61,.54-7.96,1.08-15.92,1.62-23.88,4.34,.28,8.68,.38,13.03,.3,.15,7.46,.3,14.93,.45,22.39,.02,1.11,.17,1.84,.44,2.19,.27,.35,.81,.51,1.61,.49,1.5-.05,2.22-.93,2.14-2.63-.34-7.52-.67-15.03-1.01-22.55,4.34-.19,8.67-.55,12.98-1.1,.99,7.4,1.98,14.8,2.97,22.21,.14,1.07,.37,1.77,.7,2.1,.32,.33,.88,.44,1.68,.33,1.49-.21,2.09-1.22,1.8-3.02-1.17-7.38-2.34-14.75-3.51-22.13,4.3-.65,8.57-1.49,12.8-2.51Z"/><path class="cls-2" d="M234.61,246.9c1.21,2.78,2.43,5.56,3.64,8.35-1.28,.54-2.57,1.07-3.86,1.58,1.64,4.04,3.29,8.07,4.94,12.11-5.01,1.98-10.09,3.73-15.24,5.25-3.38-10.99-6.77-21.97-10.15-32.96,4.18-1.24,8.3-2.66,12.36-4.26,1.55,3.81,3.11,7.62,4.66,11.43,1.22-.48,2.44-.98,3.66-1.5Zm8.88-18.05c5.68,10.03,11.35,20.05,17.03,30.08-4.74,2.63-9.58,5.03-14.51,7.21-4.76-10.48-9.53-20.96-14.29-31.44,4-1.77,7.93-3.72,11.78-5.85Z"/><path class="cls-2" d="M279.19,219.74c1.72,1.9,3.45,3.81,5.17,5.71-2.49,2.26-5.03,4.43-7.63,6.51-1.06,.85-1.73,1.54-2.02,2.1-.28,.56-.23,1.09,.16,1.6,.44,.58,.97,.78,1.57,.6,.6-.18,1.63-.83,3.05-1.97,2.73-2.2,5.39-4.5,8-6.9,2.23,2.43,4.45,4.86,6.68,7.29-3.21,2.96-6.52,5.78-9.91,8.46-4.79,3.78-9.15,5.69-12.78,5.93-3.64,.24-6.36-1.17-8.2-4.06-2.43-3.81-4.87-7.61-7.3-11.42-1.78-2.79-2.06-5.63-1.01-8.52,1.06-2.9,3.36-5.59,6.9-8.34,3.06-2.38,6.04-4.9,8.93-7.55,2.24,2.44,4.48,4.88,6.71,7.32-2.26,2.08-4.57,4.08-6.93,6-1.91,1.55-2.54,2.75-1.84,3.66,.41,.53,.94,.72,1.57,.56,.63-.16,1.55-.72,2.75-1.69,2.08-1.7,4.13-3.47,6.14-5.29Z"/><path class="cls-2" d="M292.71,199.27c6.53,5.32,13.06,10.64,19.59,15.97-3.57,4.47-7.32,8.72-11.23,12.74-8.23-8.08-16.45-16.16-24.68-24.24,4.07-4.19,7.93-8.68,11.54-13.47,3.29-4.37,6.46-7.41,9.8-9.02,3.72-1.78,7.05-1.97,10-.22,2.99,1.77,4.39,5.34,3.81,10.75,5.65-.05,11.38-.38,17.17-1.03-3.06,5.49-6.35,10.73-9.85,15.72-4.63,.14-9.21,.09-13.72-.15-2.32-1.84-4.64-3.68-6.97-5.52,.25-.32,.49-.64,.74-.96,1.96-2.58,2.14-4.47,.64-5.56-1.33-.97-3.03,.05-5.22,2.92-.54,.7-1.08,1.39-1.62,2.07Z"/><path class="cls-2" d="M324.25,148c2.44,.77,4.88,1.54,7.31,2.3-1.18,3.74-2.45,7.39-3.82,10.96-.56,1.45-.84,2.52-.83,3.22,0,.7,.3,1.18,.89,1.42,.67,.28,1.23,.16,1.69-.38,.46-.53,1.08-1.76,1.82-3.72,1.42-3.76,2.75-7.62,3.96-11.57,3.13,.96,6.27,1.93,9.4,2.89-1.5,4.88-3.16,9.63-4.96,14.23-2.55,6.5-5.59,10.84-8.75,13.19-3.17,2.35-6.27,2.58-9.27,.95-3.96-2.15-7.92-4.29-11.88-6.44-2.9-1.58-4.48-4.05-4.87-7.37-.39-3.33,.43-7.21,2.33-11.95,1.64-4.11,3.15-8.35,4.49-12.74,3.15,.97,6.3,1.94,9.45,2.91-1.06,3.43-2.2,6.78-3.43,10.06-1,2.65-1.01,4.16,.05,4.6,.62,.26,1.18,.12,1.67-.41,.49-.54,1.06-1.62,1.68-3.28,1.08-2.9,2.1-5.86,3.04-8.88Z"/></g><text class="cls-3" transform="translate(120.4 137.9)"><tspan x="0" y="0">CAFE</tspan></text></g></g></svg>